<?xml version="1.0" encoding="UTF-8"?>
<svg id="Layer_2" xmlns="http://www.w3.org/2000/svg" viewBox="0 0 30.98 8.64">
  <g id="Layer_1-2" data-name="Layer_1">
    <g>
      <path d="M7.01,8.64h-1.8L1.68,2.5v6.13H0V0h1.89l3.44,6.03V0h1.68v8.64Z"/>
      <path d="M14.71,4.86h-4.2v2.22h4.78v1.55h-6.54V0h6.33v1.53h-4.57v1.83h4.2v1.5Z"/>
      <path d="M23.64,8.64h-2.19l-1.64-2.94-1.73,2.94h-2.1l2.78-4.4-2.64-4.24h2.16l1.54,2.81,1.58-2.81h2.09l-2.64,4.17,2.81,4.47Z"/>
      <path d="M30.98,0v1.53h-2.58v7.11h-1.82V1.53h-2.6V0h7Z"/>
    </g>
  </g>
</svg>