<?xml version="1.0" encoding="UTF-8"?>
<svg id="Layer_2" xmlns="http://www.w3.org/2000/svg" viewBox="0 0 31.56 8.64">
  <g id="Layer_1-2" data-name="Layer_1">
    <g>
      <path d="M3.63,5.53h-1.83v3.11H0V0h3.76c.87,0,1.56.22,2.07.67s.77,1.13.77,2.07c0,1.02-.26,1.74-.77,2.16s-1.25.63-2.21.63ZM4.47,3.73c.23-.21.35-.54.35-.98s-.12-.77-.35-.96-.57-.29-.99-.29h-1.68v2.54h1.68c.43,0,.76-.1,1-.31Z"/>
      <path d="M11.63,5.25h-1.86v3.39h-1.76V0h4.24c.61.01,1.07.09,1.4.22s.6.34.83.6c.19.22.34.46.45.73s.16.57.16.91c0,.41-.1.81-.31,1.21s-.55.68-1.03.84c.4.16.68.39.85.68s.25.75.25,1.35v.58c0,.39.02.66.05.8.05.22.16.39.33.49v.22h-1.99c-.05-.19-.09-.35-.12-.46-.05-.24-.07-.49-.08-.74v-.8c-.02-.55-.12-.92-.31-1.1s-.56-.28-1.09-.28ZM12.73,3.68c.36-.16.54-.49.54-.97,0-.52-.17-.88-.52-1.05-.2-.1-.49-.15-.88-.15h-2.1v2.32h2.04c.41,0,.71-.05.91-.14Z"/>
      <path d="M22.64,4.86h-4.2v2.22h4.78v1.55h-6.54V0h6.33v1.53h-4.57v1.83h4.2v1.5Z"/>
      <path d="M23.99,0h1.93l1.88,6.56,1.89-6.56h1.88l-2.95,8.64h-1.71L23.99,0Z"/>
    </g>
  </g>
</svg>